<svg width="134" height="108" viewBox="0 0 134 108" fill="none" xmlns="http://www.w3.org/2000/svg">
<path d="M113 46C113 71.4051 92.4051 92 67 92C41.5949 92 21 71.4051 21 46C21 20.5949 41.5949 0 67 0C92.4051 0 113 20.5949 113 46Z" fill="url(#paint0_radial)"/>
<path fill-rule="evenodd" clip-rule="evenodd" d="M81.224 88.8698C81.224 86.1886 79.0505 84.0151 76.3694 84.0151C73.6882 84.0151 71.5147 86.1886 71.5147 88.8698V102.551C71.5147 105.232 69.3412 107.406 66.6601 107.406C63.979 107.406 61.8055 105.232 61.8055 102.551V88.8698C61.8055 86.1886 59.632 84.0151 56.9508 84.0151C54.2697 84.0151 52.0962 86.1886 52.0962 88.8698V98.1377C52.0962 100.819 49.9227 102.992 47.2415 102.992C44.5604 102.992 42.3869 100.819 42.3869 98.1377V84.0151V83.0673C42.3869 75.2676 38.7759 68.0099 35.6152 60.8792C33.7267 56.6188 32.6776 51.9036 32.6776 46.9433C32.6776 27.9316 48.0897 12.5195 67.1014 12.5195C86.1132 12.5195 101.525 27.9316 101.525 46.9433C101.525 52.3212 100.292 57.411 98.093 61.9455C94.6833 68.9763 90.9333 76.2011 90.9333 84.0151V98.1377C90.9333 100.819 88.7598 102.992 86.0787 102.992C83.3975 102.992 81.224 100.819 81.224 98.1377V88.8698Z" fill="url(#paint1_linear)"/>
<path fill-rule="evenodd" clip-rule="evenodd" d="M100.999 53.8578C100.44 57.0177 99.4507 60.0288 98.0931 62.8283C97.8974 63.2318 97.7006 63.636 97.5034 64.0409C95.9823 67.1644 94.4406 70.3304 93.2332 73.5732C89.3023 72.0254 86.5202 68.1946 86.5202 63.714C86.5202 57.8642 91.2624 53.1221 97.1122 53.1221C98.4842 53.1221 99.7954 53.383 100.999 53.8578Z" fill="url(#paint2_linear)"/>
<path fill-rule="evenodd" clip-rule="evenodd" d="M40.6461 73.966C39.5273 70.4946 38.0064 67.1024 36.5017 63.7465C36.2045 63.0837 35.908 62.4223 35.6153 61.762C34.5588 59.3784 33.765 56.8525 33.2706 54.2209C34.6876 53.5175 36.2845 53.1221 37.9738 53.1221C43.8236 53.1221 48.5658 57.8642 48.5658 63.714C48.5658 68.6407 45.2021 72.7818 40.6461 73.966Z" fill="url(#paint3_linear)"/>
<path fill-rule="evenodd" clip-rule="evenodd" d="M72.1161 58.3605C72.3747 58.7599 72.2829 59.3113 71.8899 59.555C68.7256 61.5164 64.8133 61.5164 61.6491 59.555C61.256 59.3113 61.1643 58.7599 61.4228 58.3605C61.6814 57.9611 62.1924 57.8658 62.5889 58.1029C65.1844 59.6549 68.3546 59.6549 70.9501 58.1029C71.3466 57.8658 71.8575 57.9611 72.1161 58.3605Z" fill="black"/>
<path d="M51.2274 25.0932C48.3988 27.0525 46.6756 29.4356 45.8198 28.2002C44.964 26.9647 46.5011 24.1663 49.3296 22.2071C52.1582 20.2479 55.2072 19.8697 56.0629 21.1052C56.9187 22.3407 54.0559 23.134 51.2274 25.0932Z" fill="#FFFBFC" fill-opacity="0.47"/>
<path d="M60.8541 20.0698C59.8335 20.6143 58.4808 21.0229 57.9799 20.0838C57.4789 19.1447 57.9995 18.6695 59.0201 18.125C60.0407 17.5806 61.1749 17.173 61.6758 18.1121C62.1768 19.0512 61.8747 19.5253 60.8541 20.0698Z" fill="#FFFBFC" fill-opacity="0.47"/>
<path fill-rule="evenodd" clip-rule="evenodd" d="M67.3134 43.3689C73.9677 43.7422 81.4431 46.3784 86.6749 43.6975C91.9275 41.0059 89.6046 36.1791 89.0094 32.2513C88.4612 28.6346 87.516 25.0532 83.4526 22.4356C78.8988 19.5021 72.8268 16.872 65.8556 17.3363C58.9508 17.7961 53.6422 21.2671 49.5701 24.6921C46.0262 27.6728 44.2911 31.252 45.2064 34.7043C46.0281 37.8037 49.7644 40.1621 54.1245 41.8711C57.9328 43.3637 62.6534 43.1074 67.3134 43.3689Z" fill="url(#paint4_radial)" fill-opacity="0.55"/>
<ellipse cx="85.6127" cy="50.5203" rx="9.83815" ry="9.57225" fill="white"/>
<ellipse cx="85.8483" cy="53.5202" rx="6.11561" ry="6.3815" fill="black"/>
<circle cx="48.6531" cy="50.5203" r="9.57225" fill="white"/>
<ellipse cx="48.6227" cy="53.5202" rx="6.11561" ry="6.3815" fill="black"/>
<path d="M7.85301 80.016H0.251008V74.85H22.091V80.016H14.489V99H7.85301V80.016ZM36.2165 92.532H32.1425V99H25.5065V74.85H36.5105C39.8425 74.85 42.4885 75.648 44.4485 77.244C46.4085 78.812 47.3885 80.982 47.3885 83.754C47.3885 85.518 46.9545 87.058 46.0865 88.374C45.2465 89.662 44.0425 90.67 42.4745 91.398L47.8505 99H40.7105L36.2165 92.532ZM40.7105 83.754C40.7105 82.55 40.3185 81.626 39.5345 80.982C38.7505 80.338 37.5885 80.016 36.0485 80.016H32.1425V87.492H36.0485C37.5885 87.492 38.7505 87.17 39.5345 86.526C40.3185 85.882 40.7105 84.958 40.7105 83.754ZM64.8096 90.978V99H58.1736V90.978L48.4296 74.85H55.4436L61.7016 85.14L67.9176 74.85H74.5956L64.8096 90.978ZM89.2447 74.85H95.8807V99H89.2447V74.85ZM106.824 80.016H99.2217V74.85H121.062V80.016H113.46V99H106.824V80.016ZM124.086 74.85H131.646L130.47 89.634H125.262L124.086 74.85ZM127.866 99.336C126.634 99.336 125.654 98.986 124.926 98.286C124.198 97.586 123.834 96.76 123.834 95.808C123.834 94.828 124.198 94.002 124.926 93.33C125.654 92.658 126.634 92.322 127.866 92.322C129.07 92.322 130.036 92.672 130.764 93.372C131.52 94.044 131.898 94.856 131.898 95.808C131.898 96.76 131.52 97.586 130.764 98.286C130.036 98.986 129.07 99.336 127.866 99.336Z" fill="url(#paint5_linear)"/>
<defs>
<radialGradient id="paint0_radial" cx="0" cy="0" r="1" gradientUnits="userSpaceOnUse" gradientTransform="translate(67 46) rotate(90) scale(46)">
<stop offset="0.723958" stop-color="#B3C3FF"/>
<stop offset="1" stop-color="white" stop-opacity="0"/>
</radialGradient>
<linearGradient id="paint1_linear" x1="71.3925" y1="12.5195" x2="71.3925" y2="107.406" gradientUnits="userSpaceOnUse">
<stop stop-color="#408CFF"/>
<stop offset="1" stop-color="#F7F8FC"/>
</linearGradient>
<linearGradient id="paint2_linear" x1="97.1122" y1="53.1221" x2="97.1122" y2="74.306" gradientUnits="userSpaceOnUse">
<stop stop-color="#D9FFF6"/>
<stop offset="1" stop-color="#B3C3FF"/>
</linearGradient>
<linearGradient id="paint3_linear" x1="37.9739" y1="53.1221" x2="37.9739" y2="74.306" gradientUnits="userSpaceOnUse">
<stop stop-color="#D9FFF6"/>
<stop offset="1" stop-color="#B3C3FF"/>
</linearGradient>
<radialGradient id="paint4_radial" cx="0" cy="0" r="1" gradientUnits="userSpaceOnUse" gradientTransform="translate(71.0912 18.9328) rotate(105.511) scale(20.325 20.4074)">
<stop stop-color="white" stop-opacity="0.79"/>
<stop offset="1" stop-color="white" stop-opacity="0"/>
</radialGradient>
<linearGradient id="paint5_linear" x1="3.15707" y1="72" x2="128.841" y2="75.339" gradientUnits="userSpaceOnUse">
<stop stop-color="#FF96B0"/>
<stop offset="1" stop-color="#7633CC"/>
</linearGradient>
</defs>
</svg>
